# xmcd
#
# Track frame offsets: 
#        150
#        16319
#        31281
#        44067
#        57637
#        72361
#        87920
#        105623
#        123599
#        139662
#        150879
#
# Disc length: 2255 seconds
#
# Revision: 0
# Processed by: cddbd v1.5.2PL0 Copyright (c) Steve Scherf et al.
# Submitted via: ExactAudioCopy v0.95b4
#
DISCID=9308cd0b
DTITLE=Melissa Ferrick - In The Eyes of Strangers
DYEAR=2007
DGENRE=Country
TTITLE0=Never Give Up
TTITLE1=Inside
TTITLE2=Everything You Get
TTITLE3=Closer
TTITLE4=One Year
TTITLE5=Stuck
TTITLE6=Rest Now
TTITLE7=Miss Liberty
TTITLE8=Easy
TTITLE9=Come On Life
TTITLE10=It's Been A Long Time
EXTD=
EXTT0=
EXTT1=
EXTT2=
EXTT3=
EXTT4=
EXTT5=
EXTT6=
EXTT7=
EXTT8=
EXTT9=
EXTT10=
PLAYORDER=
